<svg xmlns="http://www.w3.org/2000/svg" viewBox="0 0 505.53 562.53"><defs><style>.cls-1{fill:#6138f4;}.cls-2{fill:#00e5f3;}</style></defs><g id="Layer_2" data-name="Layer 2"><g id="Layer_1-2" data-name="Layer 1"><path class="cls-1" d="M505.14,401.52c-1.1-15.18-6.33-55.54-38.39-91.15a150,150,0,0,0-117.7-49.53,127.68,127.68,0,0,0,83.75-50.3c7.34-9.66,26.06-37,27.06-76.34.18-6.84.63-52.95-33.7-90.9a130.53,130.53,0,0,0-46.47-32.68C359.37,2.25,341.22,1,330,.33a177.87,177.87,0,0,0-26.21.34L42.8.54A41.18,41.18,0,0,0,4,28.92c-4.32,13.63-.48,32.23,12.6,43.24,10.93,9.19,23.59,9.25,26.55,9.19a40.81,40.81,0,0,0,25.28-9.58,40.36,40.36,0,0,0,13.15-22c2.48-11.79-1.16-22.27-2.94-25.4a37.16,37.16,0,0,1-2.3-5c-1-2.51-1.45-3.87-1.34-5.68a9.6,9.6,0,0,1,2.11-5.3C80.34,4.55,85.58,5,86.07,5l116.81-.13a144.13,144.13,0,0,1,28.21,4.21c3.24.82,21.23,5.48,37.79,15.49,27,16.3,51.68,47.7,58.21,86.55A124.67,124.67,0,0,1,324,165.6a127.09,127.09,0,0,1-58.89,75.07,112.47,112.47,0,0,1-30.22,12.38,162.6,162.6,0,0,1-23.87,3.57c-7.59.71-15.57.9-15.57.9l-64.85,2,65,2.68s30.34,1.48,36.45,2.55A155.62,155.62,0,0,1,298,293.64c34,26.27,46.55,60.1,50.3,71.62,2.74,8.45,15.12,49.15-1.28,95.83a150.7,150.7,0,0,1-29.87,50.34,148.55,148.55,0,0,1-35.24,28.85,147.05,147.05,0,0,1-44.51,17.15l-150.64.17c-1.79,0-7.2.27-9.74-3.07-2.74-3.61-.78-9.62.89-13.44C79.48,537.94,85,526,81,511.64a40.18,40.18,0,0,0-10.9-18,40.61,40.61,0,0,0-23.32-11.06c-2.32-.27-17.16-1.71-29.95,8.85-12.45,10.27-16,26.19-14,38.47a41.24,41.24,0,0,0,7.32,17,38.65,38.65,0,0,0,9.53,9.1,40.38,40.38,0,0,0,19.06,6.3A47.79,47.79,0,0,0,50,562.11l163.42.13c4.49-.15,9.11-.24,13.87-.24,3.49,0,6.06,0,6.56,0,6.15.09,42.25.09,128.87-.07,2.49-.07,6.1-.24,10.43-.72a157,157,0,0,0,30.68-7.06c33.21-11.56,57.32-35.36,57.32-35.36a149.5,149.5,0,0,0,36.25-57.32A151.48,151.48,0,0,0,505.14,401.52Z"/><path class="cls-2" d="M139.91,146.12a8.21,8.21,0,1,0,8.21-8.21A8.2,8.2,0,0,0,139.91,146.12Z"/><path class="cls-2" d="M148.12,406.78A8.21,8.21,0,0,0,146.49,423a38.87,38.87,0,0,1-25,10.15,38.05,38.05,0,0,1-21.87-6.47A38.78,38.78,0,0,1,86,409.94c-2.89-7-3-13.89-3.15-17.36-.07-2.51,0-8.26,0-12.08,0-2.17.06-4,.08-5.2q.18-31.32.26-62.63.21-72.26,0-144.51A38.13,38.13,0,0,1,90,143.47c9.71-13.58,25-15.18,27.49-15.4,16.28-1.43,27.34,8.14,29.19,9.79a78.07,78.07,0,0,0-8.26-9.6,81.33,81.33,0,0,0-22.85-15.76,82.46,82.46,0,0,0-38.42-7.41c-29.49,1.58-48.39,19-51.58,22-21,20-24.06,44.69-24.64,50.92Q.29,232.65.2,287.23q0,32.83.09,65.69a142.57,142.57,0,0,0,.25,21.53c.79,9,1.87,21.41,7.15,33.83,11.79,27.73,37.79,39.7,41,41.11a82,82,0,0,0,39.19,6.51,81,81,0,0,0,43-16.43A78.47,78.47,0,0,0,146.6,423a8.42,8.42,0,0,0,1.52.15,8.21,8.21,0,0,0,0-16.41Z"/></g></g></svg>